<?xml version="1.0" encoding="utf-8"?>
<!-- Generator: Adobe Illustrator 24.0.1, SVG Export Plug-In . SVG Version: 6.00 Build 0)  -->
<svg version="1.1" id="Camada_1" xmlns="http://www.w3.org/2000/svg" xmlns:xlink="http://www.w3.org/1999/xlink" x="0px" y="0px"
	 viewBox="0 0 290 92" style="enable-background:new 0 0 290 92;" xml:space="preserve">
<style type="text/css">
	.st0{fill:#FFFFFF;}
	.st1{font-family:'NexaBlack';}
	.st2{font-size:14.1782px;}
	.st3{letter-spacing:3;}
</style>
<g>
	<g>
		<path class="st0" d="M54.7,16L54.7,16c0.2-3.1-0.8-6-2.6-8.1c-1.8-2.1-4.5-3.5-7.6-3.7c-0.3,0-0.6,0-0.8,0h-5.4h-9.1H28
			c-3.3,0-6.5,1.3-9,3.5c-2.5,2.2-4.2,5.2-4.6,8.5l-2.9,22.1l-1.1,8.4c0,0.3-0.1,0.6-0.1,0.8h0c-0.2,3.1,0.8,6,2.6,8.1
			c1.8,2.1,4.5,3.5,7.6,3.7l0,0c0.3,0,0.6,0,0.8,0h4.2h9.1h2.5c3.3,0,6.5-1.3,9-3.5c2.5-2.2,4.2-5.2,4.6-8.5l2.9-22.1l1.1-8.4
			C54.6,16.4,54.7,16.2,54.7,16z M46.8,16l0,0.3l-1.1,8.4l-2.9,22.1c-0.2,1.2-0.8,2.4-1.8,3.2c-1,0.8-2.2,1.4-3.4,1.4H35h-9.1h-4.2
			h-0.3h0c-1-0.1-1.9-0.5-2.5-1.2s-0.9-1.6-0.8-2.7h0l0-0.3l1.1-8.4l2.9-22.1c0.2-1.2,0.8-2.4,1.8-3.2c1-0.8,2.2-1.4,3.4-1.4h1.2
			h9.1h5.4h0.3h0c1,0.1,1.9,0.5,2.5,1.2C46.5,14.1,46.8,15,46.8,16L46.8,16z"/>
		<path class="st0" d="M132.1,15.4c-1.7-1.9-4.1-3.1-6.8-3.3c-0.3,0-0.5,0-0.7,0h-13.4c-2.8,0-5.7,1.1-8,3.1c-2.3,2-3.7,4.7-4.1,7.5
			l-3.5,25.8c0,0.3-0.1,0.5-0.1,0.7l0,0.5h0c-0.1,2.5,0.8,4.8,2.3,6.7c1.6,1.8,3.8,3,6.3,3.2l0.5,0c0.3,0,0.5,0,0.7,0h25.8l-0.2-0.6
			c-0.5-2-1.5-3.7-2.9-4.9c-1.7-1.5-3.8-2.2-6.4-2.2H106h-0.2c-0.7,0-1.3-0.3-1.8-0.8c-0.4-0.4-0.6-1-0.6-1.6l0.5-3.9
			c0.3-2.2,3.7-2.8,6.2-3.3l0.2,0c0.6-0.1,1.2-0.2,1.7-0.3l10.3-2.3l0.1,0c3.1-0.8,5.5-1.9,7.3-3.4c2.3-1.8,3.5-4.1,3.9-7l0.8-6
			c0-0.3,0.1-0.5,0.1-0.7C134.7,19.9,133.9,17.4,132.1,15.4z M126,28.7c-0.1,0.7-0.4,1.2-0.9,1.7c-0.8,0.7-2.2,1.3-4,1.7l-10.3,2.3
			c-0.5,0.1-1,0.2-1.6,0.3c-1.2,0.2-2.5,0.5-3.8,0.9l1.7-12.4c0.1-0.9,0.6-1.8,1.4-2.4c0.8-0.7,1.7-1,2.6-1h13.4h0.2
			c0.7,0,1.3,0.3,1.8,0.8c0.4,0.5,0.6,1.2,0.6,1.9L126,28.7z"/>
		<path class="st0" d="M92.6,15.4c-1.7-1.9-4.1-3.1-6.8-3.3l-14.3,0c-2.8,0-5.7,1.1-8,3.1c-2.3,2-3.7,4.7-4.1,7.5l-4.9,37.1h7.7
			l4.8-36.5c0.1-0.9,0.6-1.8,1.4-2.4c0.8-0.7,1.7-1,2.6-1h13.9c0.7,0,1.3,0.3,1.8,0.8c0.4,0.4,0.6,1,0.6,1.6l-4,29.8
			c0,1.9,0.4,3.5,1.4,4.8c1,1.4,2.5,2.4,4.5,2.9l0.5,0.1l2.5-17.2l1.7-12.3l0.9-7.1c0-0.3,0.1-0.5,0.1-0.7l0-0.5h0
			C95,19.6,94.2,17.2,92.6,15.4z"/>
	</g>
	<g>
		<path class="st0" d="M192.5,43.4c0.1-0.8,0.2-1.5,0.3-2.8c0.4-3.2-0.8-5.9-3-8c-2.1-2-5-3.4-8.3-4.4l-0.1,0l-14.7-4.1
			c-1.4-0.4-2.3-1-2.7-1.6c-0.6-0.8-0.6-1.9-0.5-2.9c0-0.3,0.1-0.9,0.2-1.4c0.1-0.3,0.1-0.7,0.2-1.6c0.1-1.1,0.8-2.2,1.8-3.1
			c1.1-0.8,2.5-1.4,4.2-1.4h5.4l0,0h12.7h0.2c3.1,0,5.2-1,6.7-2.4c1.6-1.5,2.3-3.6,2.5-5.5h-11.8c-3.8,0-7.6,0-11.4,0h-3.7
			c-3.7,0-7,1.3-9.4,3.3c-2.8,2.2-4.6,5.3-5,8.7c0,0.3-0.1,0.9-0.2,1.4c-0.1,0.3-0.1,0.7-0.2,1.6c-0.3,2.5,0,5.5,1.7,8
			c1.3,2,3.5,3.6,6.8,4.5l13.7,3.8c4.8,1.3,7.4,2,6.9,6.1c-0.1,0.4-0.1,0.8-0.1,1.3c-0.1,0.8-0.2,1.5-0.3,2.8c-0.2,1.4-1,2.9-2.3,4
			c-1.2,1-2.6,1.7-4.2,1.7l-26.2-0.1c0.5,1.9,1.4,3.9,3.2,5.5c1.7,1.5,4,2.4,7.1,2.4h15.3c3.6,0,7.1-1.5,9.7-3.9
			c2.8-2.4,4.7-5.8,5.1-9.3C192.2,45.3,192.4,44.3,192.5,43.4z"/>
		<path class="st0" d="M267.9,12.2c-3.4,0-6.7,0-10.1,0h-3.3c-3.2,0-6.3,1.1-8.7,3c-2.6,2.1-4.3,5-4.6,8.1c0,0.2-0.1,0.5-0.1,0.9
			l-0.1,0.5c0,0.3-0.1,0.6-0.2,1.3c-0.4,2.9,0.2,5.4,1.6,7.5c1.4,2,3.5,3.4,6.3,4.2l12.3,3.4c4.5,1.2,6.1,1.8,5.7,4.8
			c0,0.2,0,0.4,0,0.6c0,0.2,0,0.4,0,0.6c-0.1,0.7-0.2,1.4-0.3,2.5c-0.1,1.1-0.8,2.3-1.9,3.2c-1,0.9-2.2,1.4-3.4,1.4L237.1,54
			l0.1,0.6c0.5,2.2,1.5,3.9,3,5.2c1.8,1.5,4,2.3,6.7,2.3h13.6c3.2,0,6.4-1.3,9-3.6c2.6-2.3,4.3-5.5,4.7-8.6c0.1-0.6,0.2-1.3,0.2-2
			l0.1-0.5c0.1-0.6,0.2-1.3,0.3-2.3c0.3-2.9-0.6-5.4-2.8-7.5c-1.8-1.7-4.3-3-7.7-4l-13.1-3.6c-1.1-0.3-1.8-0.7-2.2-1.3
			c-0.4-0.5-0.5-1.3-0.4-2.3c0-0.2,0.1-0.6,0.1-1l0-0.3c0-0.3,0.1-0.6,0.2-1.3c0.1-0.9,0.6-1.7,1.4-2.4c0.9-0.7,2.1-1.1,3.5-1.1
			h16.3c2.6,0,4.7-0.8,6.3-2.3c1.3-1.2,2.1-3,2.4-5.2l0.1-0.5L267.9,12.2L267.9,12.2z"/>
		<path class="st0" d="M230.3,12.2l-5.8,42.2c-1.3-0.4-2.6-0.7-3.9-1c-0.7-0.2-1.4-0.3-2.1-0.5l-10.2-2.5l-0.2,0
			c-1.6-0.5-2.7-1-3.2-1.6c-0.3-0.3-0.4-0.8-0.4-1.4l3.6-26.9c0-1.9-0.5-3.6-1.5-5c-1.1-1.5-2.6-2.5-4.7-3l-0.5-0.1l-3.6,24.9
			l-1.3,9.7c-0.4,3,0.4,5.6,2.4,7.7c1.6,1.6,3.8,2.8,6.9,3.7l10.3,2.5c0.4,0.1,1.1,0.3,1.9,0.4c2.3,0.5,5.4,1.2,5.2,3l-1.5,7.3
			c-0.1,0.9-0.6,1.9-1.4,2.6c-0.8,0.7-1.7,1-2.7,1h-4l-0.5,0.1h-14.9c-2.7,0-4.9,0.8-6.7,2.3c-1.4,1.2-2.5,3-3,5.1l-0.1,0.6l28.7,0
			c3,0,5.9-1.2,8.3-3.2c2.4-2.1,4.4-4.9,4.8-7.9l8.5-59.8L230.3,12.2L230.3,12.2z"/>
	</g>
	<text transform="matrix(1 0 0 1 12.0698 83.2393)" class="st0 st1 st2 st3">TECNOLOGIA</text>
</g>
</svg>
