<?xml version="1.0" encoding="utf-8"?>
<!-- Generator: Adobe Illustrator 24.3.0, SVG Export Plug-In . SVG Version: 6.00 Build 0)  -->
<svg version="1.1" id="Camada_1" xmlns="http://www.w3.org/2000/svg" xmlns:xlink="http://www.w3.org/1999/xlink" x="0px" y="0px"
	 viewBox="0 0 290 92" style="enable-background:new 0 0 290 92;" xml:space="preserve">
<style type="text/css">
	.st0{fill:#000084;}
	.st1{fill:#00ADEA;}
	.st2{fill:#808083;}
	.st3{font-family:'NexaBlack';}
	.st4{font-size:14.1782px;}
	.st5{letter-spacing:4;}
</style>
<g>
	<g>
		<path class="st0" d="M54.67,16.03h-0.02c0.22-3.13-0.77-5.96-2.6-8.06c-1.82-2.1-4.47-3.46-7.57-3.66
			c-0.33-0.02-0.59-0.03-0.76-0.03h-5.4H29.2h-1.25c-3.32,0-6.51,1.35-8.98,3.53c-2.46,2.17-4.2,5.18-4.64,8.52L11.4,38.4
			l-1.11,8.41c-0.04,0.34-0.07,0.59-0.08,0.75h0.02c-0.22,3.12,0.77,5.96,2.6,8.06c1.82,2.1,4.47,3.46,7.57,3.66l0,0
			c0.33,0.02,0.59,0.03,0.76,0.03h4.2h9.12h2.45c3.32,0,6.51-1.35,8.98-3.53c2.45-2.17,4.2-5.18,4.64-8.52l2.93-22.08l1.11-8.41
			C54.63,16.44,54.66,16.19,54.67,16.03z M46.76,16.03l-0.02,0.29l-1.12,8.41L42.7,46.81c-0.16,1.24-0.84,2.39-1.8,3.23
			c-0.95,0.84-2.17,1.36-3.42,1.36h-2.45H25.9h-4.2h-0.27h-0.02c-1.02-0.06-1.89-0.51-2.48-1.19c-0.59-0.68-0.92-1.62-0.84-2.65
			h0.02l0.02-0.29l1.11-8.41l2.93-22.08c0.16-1.24,0.84-2.39,1.8-3.23c0.95-0.84,2.17-1.36,3.42-1.36h1.25h9.12h5.4h0.27h0.02
			c1.02,0.06,1.89,0.51,2.48,1.19c0.6,0.68,0.91,1.61,0.84,2.65H46.76z"/>
		<path class="st0" d="M132.15,15.4c-1.69-1.94-4.09-3.11-6.78-3.28c-0.3-0.02-0.52-0.03-0.68-0.03h-13.36
			c-2.85,0-5.68,1.11-7.96,3.12c-2.27,2.01-3.73,4.68-4.11,7.54l-3.46,25.84c-0.04,0.3-0.06,0.52-0.07,0.67l-0.03,0.54h0.02
			c-0.05,2.5,0.77,4.85,2.35,6.67c1.59,1.83,3.81,2.97,6.31,3.24l0.48,0.04c0.29,0.02,0.52,0.03,0.67,0.03h25.83l-0.16-0.62
			c-0.52-2.05-1.49-3.7-2.88-4.9c-1.68-1.45-3.83-2.19-6.38-2.19H106l-0.21,0c-0.7-0.05-1.33-0.34-1.76-0.84
			c-0.38-0.44-0.59-1.01-0.6-1.63l0.52-3.87c0.29-2.16,3.72-2.85,6.23-3.35l0.17-0.03c0.62-0.12,1.19-0.24,1.66-0.35l10.32-2.34
			l0.12-0.03c3.09-0.8,5.46-1.9,7.26-3.38c2.26-1.85,3.54-4.14,3.92-6.98l0.79-5.98c0.04-0.31,0.07-0.53,0.08-0.67
			C134.68,19.91,133.85,17.35,132.15,15.4z M125.97,28.73c-0.09,0.67-0.4,1.21-0.95,1.66c-0.84,0.69-2.15,1.26-4,1.74l-10.32,2.34
			c-0.53,0.13-1.04,0.23-1.62,0.35c-1.18,0.24-2.49,0.5-3.8,0.88l1.65-12.43c0.12-0.9,0.6-1.76,1.37-2.44
			c0.75-0.67,1.67-1.03,2.57-1.03h13.36l0.21,0c0.7,0.04,1.33,0.34,1.76,0.84c0.42,0.49,0.63,1.16,0.58,1.88L125.97,28.73z"/>
		<path class="st0" d="M92.59,15.39c-1.69-1.94-4.1-3.11-6.78-3.28l-14.34-0.03c-2.85,0-5.68,1.11-7.96,3.12
			c-2.27,2-3.73,4.68-4.11,7.54l-4.91,37.07h7.73l4.84-36.55c0.12-0.9,0.6-1.76,1.37-2.44c0.75-0.66,1.66-1.03,2.57-1.03l13.88,0
			c0.7,0.04,1.32,0.34,1.76,0.84c0.38,0.44,0.59,1,0.6,1.62l-4,29.84c-0.02,1.86,0.45,3.48,1.4,4.8c1.01,1.41,2.53,2.39,4.52,2.91
			l0.54,0.14l2.53-17.23l1.67-12.3l0.95-7.14c0.04-0.3,0.06-0.53,0.07-0.67l0.02-0.54h-0.01C94.99,19.56,94.16,17.21,92.59,15.39z"
			/>
	</g>
	<g>
		<path class="st1" d="M192.49,43.38c0.1-0.76,0.19-1.52,0.34-2.75c0.38-3.23-0.8-5.86-3-7.97c-2.07-1.97-5.04-3.4-8.33-4.36
			l-0.05-0.02l-14.68-4.07c-1.45-0.4-2.3-0.98-2.74-1.63c-0.55-0.81-0.61-1.9-0.5-2.91c0.04-0.31,0.11-0.87,0.19-1.43
			c0.05-0.34,0.09-0.68,0.2-1.59c0.13-1.13,0.8-2.23,1.82-3.05c1.06-0.84,2.52-1.39,4.24-1.39h5.42l0,0l12.69,0h0.19
			c3.09-0.02,5.24-1.03,6.7-2.42c1.61-1.54,2.26-3.64,2.48-5.46h-11.84c-3.78,0.01-7.57,0.03-11.35,0h-3.72
			c-3.69,0-6.96,1.27-9.45,3.26c-2.78,2.22-4.59,5.35-4.99,8.68c-0.04,0.31-0.11,0.87-0.19,1.43c-0.05,0.34-0.09,0.68-0.2,1.59
			c-0.3,2.55-0.04,5.47,1.71,8.02c1.34,1.95,3.47,3.59,6.76,4.5l13.73,3.8c4.79,1.31,7.41,2,6.88,6.06
			c-0.05,0.39-0.06,0.81-0.11,1.26c-0.1,0.77-0.2,1.52-0.34,2.75c-0.17,1.41-1.03,2.86-2.28,3.97c-1.16,1.03-2.64,1.71-4.16,1.71
			l-26.16-0.07c0.46,1.87,1.38,3.92,3.23,5.52c1.67,1.45,3.97,2.44,7.13,2.44h15.26c3.64,0,7.08-1.54,9.73-3.9
			c2.75-2.44,4.68-5.83,5.09-9.3C192.24,45.28,192.37,44.32,192.49,43.38z"/>
		<path class="st1" d="M267.91,12.22c-3.37,0.01-6.74,0.02-10.11,0h-3.32c-3.19,0-6.29,1.07-8.72,3.01
			c-2.57,2.06-4.26,4.99-4.62,8.06c-0.02,0.2-0.07,0.54-0.12,0.91l-0.06,0.48c-0.04,0.27-0.08,0.59-0.16,1.3
			c-0.35,2.91,0.19,5.42,1.6,7.48c1.38,2.01,3.5,3.42,6.29,4.2l12.29,3.4c4.55,1.24,6.1,1.83,5.71,4.85
			c-0.02,0.18-0.04,0.37-0.05,0.56c-0.01,0.18-0.03,0.37-0.05,0.56c-0.09,0.69-0.18,1.36-0.31,2.45c-0.13,1.11-0.82,2.29-1.87,3.23
			c-1.02,0.9-2.22,1.4-3.38,1.4l-23.92-0.07l0.15,0.6c0.53,2.15,1.54,3.88,3.03,5.17c1.76,1.52,4,2.29,6.66,2.29h13.59
			c3.19,0,6.38-1.28,8.99-3.59c2.61-2.32,4.32-5.45,4.69-8.59c0.07-0.6,0.16-1.31,0.25-2.02l0.06-0.5c0.08-0.64,0.17-1.3,0.29-2.33
			c0.34-2.87-0.61-5.39-2.82-7.5c-1.78-1.69-4.34-3.04-7.66-4.02l-13.08-3.62c-1.07-0.29-1.8-0.72-2.17-1.26
			c-0.36-0.52-0.48-1.28-0.36-2.26c0.03-0.23,0.08-0.62,0.14-1.03l0.04-0.32c0.04-0.28,0.08-0.6,0.17-1.34
			c0.1-0.87,0.63-1.74,1.45-2.4c0.91-0.73,2.15-1.13,3.47-1.13h16.29c2.6-0.02,4.72-0.79,6.29-2.29c1.28-1.22,2.1-3.01,2.35-5.16
			l0.06-0.54H267.91z"/>
		<path class="st1" d="M230.26,12.16l-5.8,42.24c-1.27-0.42-2.6-0.71-3.88-1c-0.69-0.15-1.38-0.3-2.07-0.48l-10.17-2.45l-0.17-0.03
			c-1.58-0.47-2.67-1.01-3.25-1.62c-0.32-0.33-0.43-0.79-0.35-1.41l3.62-26.9c0.02-1.94-0.47-3.63-1.46-5.01
			c-1.06-1.47-2.64-2.49-4.72-3.03l-0.52-0.14l-3.58,24.89l-1.28,9.65c-0.4,3.02,0.39,5.6,2.35,7.65c1.55,1.62,3.81,2.83,6.87,3.68
			l10.32,2.51c0.44,0.11,1.12,0.26,1.85,0.41c2.28,0.48,5.4,1.15,5.16,3.01l-1.49,7.28c-0.13,0.95-0.64,1.87-1.45,2.58
			c-0.75,0.66-1.72,1.03-2.72,1.03h-3.99l-0.48,0.05h-14.93c-2.67,0-4.91,0.77-6.66,2.29c-1.45,1.25-2.46,2.98-3,5.12l-0.15,0.6
			l28.73,0.01c2.99,0,5.94-1.15,8.32-3.25c2.37-2.1,4.35-4.9,4.75-7.89l8.52-59.79H230.26z"/>
	</g>
	<text transform="matrix(1 0 0 1 12.0698 83.2393)" class="st2 st3 st4 st5">TECNOLOGIA</text>
</g>
</svg>
