<?xml version="1.0" encoding="utf-8"?>
<!-- Generator: Adobe Illustrator 24.0.1, SVG Export Plug-In . SVG Version: 6.00 Build 0)  -->
<svg version="1.1" id="Layer_1" xmlns="http://www.w3.org/2000/svg" xmlns:xlink="http://www.w3.org/1999/xlink" x="0px" y="0px"
	 viewBox="0 0 512 512" style="enable-background:new 0 0 512 512;" xml:space="preserve">
<style type="text/css">
	.st0{fill:#FFFFFF;}
</style>
<g>
	<g>
		<path class="st0" d="M256.6,100.2c-85.6,0-155.3,69.6-155.3,155.3c0,27.3,7.2,54.1,20.8,77.6c2.3,3.9,7.3,5.3,11.3,3
			c3.9-2.3,5.3-7.3,3-11.3c-12.1-21-18.6-45-18.6-69.4c0-76.5,62.2-138.7,138.7-138.7S395.3,179,395.3,255.5S333,394.2,256.6,394.2
			c-38.5,0-74.3-15.4-100.7-43.4c-3.1-3.3-8.4-3.5-11.7-0.3c-3.3,3.1-3.5,8.4-0.3,11.7c29.6,31.3,69.7,48.5,112.7,48.5
			c85.6,0,155.3-69.6,155.3-155.3S342.2,100.2,256.6,100.2z"/>
	</g>
</g>
<g>
	<g>
		<path class="st0" d="M256.6,155.3c-55.2,0-100.2,44.9-100.2,100.2s44.9,100.2,100.2,100.2s100.2-44.9,100.2-100.2
			S311.8,155.3,256.6,155.3z M256.6,339.1c-46.1,0-83.7-37.5-83.7-83.7s37.5-83.7,83.7-83.7s83.7,37.5,83.7,83.7
			S302.7,339.1,256.6,339.1z"/>
	</g>
</g>
<g>
	<g>
		<path class="st0" d="M397.5,78.2c-20,0-36.3,16.3-36.3,36.3s16.3,36.3,36.3,36.3s36.3-16.3,36.3-36.3S417.5,78.2,397.5,78.2z
			 M397.5,134.3c-10.9,0-19.8-8.9-19.8-19.8s8.9-19.8,19.8-19.8s19.8,8.9,19.8,19.8S408.4,134.3,397.5,134.3z"/>
	</g>
</g>
<g>
	<g>
		<path class="st0" d="M398,0H114C51,0,0,51,0,114V398C0,461,51,512,114,512H398c62.9,0,114-51,114-114V114C512,51,461,0,398,0z
			 M495.5,398c0,53.8-43.6,97.4-97.4,97.4H114c-53.8,0-97.4-43.6-97.4-97.4V114c0-53.8,43.6-97.4,97.4-97.4H398
			c53.8,0,97.4,43.6,97.4,97.4L495.5,398L495.5,398z"/>
	</g>
</g>
<g>
	<g>
		<path class="st0" d="M394.7,38.5H117.3c-43.5,0-78.7,35.2-78.7,78.7v277.5c0,43.5,35.2,78.7,78.7,78.7h277.5
			c43.5,0,78.7-35.2,78.7-78.7V117.3C473.5,73.8,438.2,38.5,394.7,38.5z M456.9,394.7c0,34.4-27.9,62.2-62.2,62.2H117.3
			c-34.4,0-62.2-27.9-62.2-62.2V117.3c0-34.4,27.9-62.2,62.2-62.2h277.5c34.4,0,62.2,27.9,62.2,62.2L456.9,394.7L456.9,394.7z"/>
	</g>
</g>
</svg>
